<svg width="1080" height="1080" viewBox="0 0 555 555" fill="none" xmlns="http://www.w3.org/2000/svg"><g clip-path="url(#clip0_929_33037)"><path opacity=".13" d="M161.802 137v233.6h232.3V137c0-10.4-1.2-20.4-3.6-30-12.7-52.7-58.3-91.7-112.5-91.7-18 0-35 4.3-50.2 12-24.9 12.6-44.9 34.2-56.1 60.8-5.1 12.1-8.4 25.1-9.4 38.9-.3 3.2-.5 6.6-.5 10z" fill="#D4E1FC"></path><path opacity=".23" d="M171.7 88l222.5 108.9v-60c0-10.4-1.2-20.4-3.6-30L227.8 27.2c-24.9 12.6-44.9 34.2-56.1 60.8zm-9.898 49v77.9l232.3 113.8v-88.2l-231.8-113.6c-.3 3.3-.5 6.7-.5 10.1zm0 121.4v112.2h229.1l-229.1-112.2z" fill="#fff"></path><path d="M159.102 211.1V210h119.1v-84.3h1.1V210h117.7v1.1h-117.7v79.2h117.7v1.1h-117.7V375h-1.1v-83.6h-119.1v-1.1h119.1v-79.2h-119.1zm39.101-167.5l.7-.8 75.3 81.1-.8.7-75.2-81zm85.899 78l73.8-79.6.8.8-73.8 79.6-.8-.8zm-6.2-112.2h-1.1v111.1h1.1V9.4z" fill="#D4E1FC"></path><path d="M155.602 133.9v246.3h244.9V133.9c-.1-70.7-55-128.3-122.5-128.3s-122.4 57.6-122.4 128.3zm235.5-13.4h-226.2c6.4-59.5 54.7-105.8 113.1-105.8 58.4 0 106.7 46.3 113.1 105.8zm-226.9 13.4c0-1.5 0-3 .1-4.4h227.5c.1 1.5.1 2.9.1 4.4v237.3h-227.7V133.9z" fill="#D4E1FC"></path><path d="M.5 444.7h555v113.2H.5V444.7z" fill="url(#paint0_radial_929_33037)"></path><path d="M390.798 221.4s4.3-4.5 3.7-12.2c-.6-7.7-6.9-8.5-6.9-8.5l14.9-13.1 8.1 14 .8 17.4-20.6 2.4z" fill="url(#paint1_linear_929_33037)"></path><path d="M383.2 207.4c-7.2.2-8-22.2-7.6-30 .1 0 16.5-1.6 17.6.2.5.9 1.3 3 2.1 5.4l2.6.8v-.6l.3-.1c-.1-1.6 1-3.1 2.6-3.5 1.9-.4 3.2.1 4.1 1.3.6.9.9 2 1 3v1.8c-.2 1.7-.8 2.8-1.5 3.5l.6 1.1-1.9-.2s.6 10.7-1.5 11.7c-3.6 1.8-10.3 4.3-10.4 4.2-4.5 1.3-6.6 1.3-8 1.4z" fill="url(#paint2_linear_929_33037)"></path><path d="M393 152.7c3.2-.3 21-4.3 28.8 16.1 5.8 15.1-11.2 32.8-11.2 32.8-7.7-5.2-7.4-11.3-7.4-11.3s3.2-1.1 2.7-6.3c-.4-5.1-4.3-4.4-4.3-4.4-3.8.3-3.5 5.2-3.5 5.2l-3 .3-1.2-4.9c-4.6.3-18.6.5-22.8-.5-.1.1-.5-21.8 21.9-27z" fill="url(#paint3_linear_929_33037)"></path><path d="M420.902 171.5a4.6 4.6 0 100-9.2 4.6 4.6 0 000 9.2z" fill="url(#paint4_linear_929_33037)"></path><path d="M421.8 168.8c2.2-4.1 7.2-6.1 11.6-4.2 2.1.9 4.1 2.7 5.1 6 3 9.8-6.9 18-8.4 32.1-1.5 14.1 4.3 25.6 12.1 31 4.969 3.44 4.297 4.9-1.036 2.056-3.763-2.008-8.562-5.199-14.064-10.256-13.5-12.5-12.5-38.4-9.1-48.1 1.4-3.7 2.7-6.5 3.8-8.6z" fill="url(#paint5_linear_929_33037)"></path><path d="M271.098 522.9h13.9V311.7h-13.9v211.2z" fill="url(#paint6_linear_929_33037)"></path><path d="M400.398 314.5h-226.8c-2.5 0-4.5-2-4.5-4.5v-3.7c0-2.5 2-4.5 4.5-4.5h226.8c2.5 0 4.5 2 4.5 4.5v3.7c0 2.5-2 4.5-4.5 4.5z" fill="url(#paint7_linear_929_33037)"></path><path d="M421.802 251.2l-31.4 45.8c-2.8 4.1-4.6 4.9-9.5 4.7l-51.6-3 1.9-15.2 45-1 27.4-44c3-4.6 8.9-6.3 13.9-4 6.4 3 8.5 11.1 4.3 16.7z" fill="url(#paint8_linear_929_33037)"></path><path d="M385.5 341.8s2.5-17.4 3-38.6c.7-28.3-13.8-31-9.8-51.7 4-20.7.7-32.5 19.8-38.4 19.1-5.9 43.3 22.4 47.1 66.4 3.8 44-12.6 58.9-12.6 58.9l-27.1 8.7-20.4-5.3z" fill="url(#paint9_linear_929_33037)"></path><path d="M378.098 450.9c.1.5 3 22.3 3 22.3s11.8-1.2 11.7-1.7c-.1-.5 1.4-26.8 1.4-26.8l-16.1 6.2z" fill="url(#paint10_linear_929_33037)"></path><path d="M379.7 470.2c.1.9.7 7.4.7 7.4s-2.9 6.6-6.4 12.1c-3.5 5.5-8.8 11.9-8.6 16.2.2 3.2 3.3 3.8 3.3 3.8s28.3-24.6 28.4-27.3c.2-3.9-1.9-8.5-1.9-8.5l-.9-5.5s-2.3-1.1-6.7-.6c-4.4.5-7.9 2.4-7.9 2.4z" fill="url(#paint11_linear_929_33037)"></path><path d="M396.598 480.6c2.3 2.7-3 8.7-8.5 15.1-6.7 7.7-16.6 18.2-21.6 12.9-3.7-3.9 9.1-8.1 18.5-22.4 3.9-6.1 9.3-8.4 11.6-5.6z" fill="url(#paint12_linear_929_33037)"></path><path d="M396.2 458.1s-1.9-22.4-1.2-36.3c.7-13.9.2-41-1.4-46.6-1.6-5.6-1.6-5.7-1.6-5.7l-30.6.9s7.8 33.9 11.5 54.7c3.7 20.8 5.5 35.2 5.5 35.2 5.9.9 11.8.2 17.3-2.1l.5-.1z" fill="url(#paint13_linear_929_33037)"></path><path d="M341.4 452c.2.5 7.9 21.1 7.9 21.1s11.2-3.8 11-4.3c-.2-.5-4.6-26.4-4.6-26.4l-14.3 9.6z" fill="url(#paint14_linear_929_33037)"></path><path d="M347.301 470.4c.3.9 2.3 7.1 2.3 7.1s-1.4 7.1-3.6 13.2-5.9 13.5-4.7 17.7c.9 3.1 4 3 4 3s22.1-30.2 21.6-32.9c-.7-3.8-3.8-7.9-3.8-7.9l-2.1-5.1s-2.5-.6-6.7.9c-4 1.5-7 4-7 4z" fill="url(#paint15_linear_929_33037)"></path><path d="M366.1 476.8c2.8 2.2-1 9.2-4.9 16.6-4.8 9-12.2 21.5-18.2 17.4-4.4-3 7.1-9.9 13.1-26 2.4-6.7 7.1-10.2 10-8z" fill="url(#paint16_linear_929_33037)"></path><path d="M409.598 368.2h-70.4s7.8 16.4 10.6 36.6c2.8 20.3 9.6 48.8 9.6 48.8-4.7 4-10.7 6.1-16.9 5.9h-.7s-29.9-80.6-32.5-91.4c-2.6-10.8-.9-17.9 14.1-22.1 15.1-4.2 43.8-11.8 89.8-12 46-.2 12.7 30.4 12.7 30.4l-16.3 3.8z" fill="url(#paint17_linear_929_33037)"></path><path d="M409.002 537.9c70.25 0 127.2-3.716 127.2-8.3 0-4.584-56.95-8.3-127.2-8.3-70.251 0-127.2 3.716-127.2 8.3 0 4.584 56.949 8.3 127.2 8.3z" fill="url(#paint18_radial_929_33037)"></path><path d="M277.9 534.9c70.251 0 127.2-3.716 127.2-8.3 0-4.584-56.949-8.3-127.2-8.3s-127.2 3.716-127.2 8.3c0 4.584 56.949 8.3 127.2 8.3z" fill="url(#paint19_radial_929_33037)"></path><path d="M245 524.9h66.2l-5.9-4.3c-7.9-5.8-17.4-9-27.2-9s-19.4 3.1-27.2 9l-5.9 4.3z" fill="url(#paint20_radial_929_33037)"></path><path d="M455.102 483h-100.3v3.8h100.3V483z" fill="url(#paint21_linear_929_33037)"></path><path d="M458.502 529.6l-12.7-157.9 3.7-.3 12.8 157.9-3.8.3z" fill="url(#paint22_linear_929_33037)"></path><path d="M425.498 529.5l-1.4-157.9 3.7-.1 1.5 157.9-3.8.1z" fill="url(#paint23_linear_929_33037)"></path><path d="M353.2 529.6l-3.7-.3 12.7-157.9 3.8.3-12.8 157.9z" fill="url(#paint24_linear_929_33037)"></path><path d="M403.298 375.8h58s12.1.9 16.8-13.9c4-12.6-1.3-20-2.1-33.6-1.2-19.3 4.4-32.4 8.6-39.4 1.6-2.6-.3-6-3.4-6h-47.1c-6.4 0-12.4 3-16.2 8.1-3.1 4.1-6.2 9.6-7.4 15.8-2.8 13.8-.9 61.3-.9 61.3h-48.2c-2.1 0-3.8 1.7-3.8 3.8 0 2.1 1.7 3.8 3.8 3.8h41.9v.1z" fill="url(#paint25_linear_929_33037)"></path><path d="M244.6 301.9h61.3l-9.1-50.4c-.5-2.1-2.4-3.5-4.5-3.5h-53c-2.4 0-4.2 2.3-3.6 4.6l8.9 49.3z" fill="url(#paint26_linear_929_33037)"></path><path d="M244.6 301.9l-.7-4.4h88.8c2.7 0 5 1.8 5.7 4.4h-93.8z" fill="url(#paint27_linear_929_33037)"></path><path d="M237.002 251l7.8 43.3h58.2l-7.8-43.3h-58.2z" fill="url(#paint28_linear_929_33037)"></path><path d="M243.9 277.6l-2.8 24.3h-10.8l-2.8-24.3h16.4z" fill="url(#paint29_linear_929_33037)"></path><path d="M243.9 277.6l-1.7-3.1h-13.1l-1.6 3.1h16.4z" fill="url(#paint30_linear_929_33037)"></path><path d="M235.7 293.8a4 4 0 100-8 4 4 0 000 8z" fill="url(#paint31_linear_929_33037)"></path><path d="M227.7 278.8h15.9c.4 0 .7-.3.7-.7 0-.4-.3-.7-.7-.7h-15.9c-.4 0-.7.3-.7.7 0 .3.3.7.7.7z" fill="url(#paint32_linear_929_33037)"></path><path d="M326.5 291.1s-2.9-.1-3.5-.2c-.6 0-16.3-4.8-17.2-4.9-.9-.1-9.9.7-10.6 1.1-.7.4-8.4 7.2-8.4 7.2s-.2 1.8 1.6 1.6c.8 1 1.1 1.1 2 .9.8-.1 7.8-2.7 7.8-2.7l5-.3 1.1 1.2-10.2 3.8s-.6 1.1.5 1.5c1.1.4 11.6-2.1 11.6-2.1s7.2 1.6 8.8 1.9c1.6.3 6.2-.3 6.2-.3l4.8 1.2.5-9.9z" fill="url(#paint33_linear_929_33037)"></path><path d="M288.399 296h-.5c.2-.2 5.9-4.4 7.9-5.2 1.1-.4 4.1-.7 4.3-.7v.3s-3.2.3-4.2.7c-2 .7-7.4 4.8-7.5 4.9z" fill="url(#paint34_linear_929_33037)"></path><path d="M407.2 236.6l-19.9 50.3c-2.1 4.4-6.9 14.4-23.5 14.4h-47.3v-12.9l42-6.8c1.8-.3 3.3-1.4 4-3l20.6-52.3c2.2-5 12-6.9 17.3-5.4 6.8 1.9 10.1 9.5 6.8 15.7z" fill="url(#paint35_linear_929_33037)"></path><path d="M44.6 215.5h75.8c3.4 0 6.1-2.7 6.1-6.1V101.2c0-3.4-2.7-6.1-6.1-6.1H44.6c-3.4 0-6.1 2.7-6.1 6.1v108.3c.1 3.3 2.8 6 6.1 6z" fill="url(#paint36_radial_929_33037)"></path><g opacity=".53"><path opacity=".53" d="M478.7 132.4c21 0 38.3 15.5 41.2 35.7h-82.4c2.9-20.1 20.2-35.7 41.2-35.7z" fill="url(#paint37_radial_929_33037)"></path><path opacity=".53" d="M478.7.6v131.8" stroke="url(#paint38_linear_929_33037)" stroke-width="1.084" stroke-miterlimit="10"></path></g><path opacity=".7" d="M91.9 405.9c-7.8-30.7-2.6-54.1 2.3-68.3 5.4-15.5 12.6-23.6 12.9-24l2.2 2-1.1-1 1.1 1c-.1.1-7.1 8.1-12.3 23.1-4.8 13.8-9.3 39.9.5 67.2h-5.6z" fill="url(#paint39_linear_929_33037)"></path><path opacity=".7" d="M81.4 380c-.6-18.4-3.5-40.4-16-47.4-8.3-4.6-16.2 2.4-16.2 2.5l-2.7-6c.4-.2 10.2-5.7 19.9-.3 11 6.1 17.1 23.3 18 51.1l-3 .1z" fill="url(#paint40_linear_929_33037)"></path><path opacity=".7" d="M110.298 444.3h-42.2l2.6-41.6h37l2.6 41.6z" fill="url(#paint41_linear_929_33037)"></path><path d="M82.4 339.3c-.9-1.6-1.7-3.2-2.5-4.9-10-21.2 14-42.8 27.8-22.8 1.1 9.1 6.6 19.1 11.9 29.1 6.2 11.8 13.3 21.3 23.3 27.1-5.3 1.8-11.5 2.6-18 2.1-1.4-4.6 1.4-16.5-2.7-16-4.3.5.4 12.6 1.8 15.9-4.7-.5-9.6-1.7-14.4-3.8-.6-5.5 9.4-19.3 4.1-20.7-5.8-1.5-5.1 18.9-5.1 20.2-4.6-2.2-7.4-3.7-11.7-7.7-.5-12.5 14.8-22.8 8.6-25.8-6.8-3.4-11.4 23.2-11.4 23.2-3.9-3.9-7.5-8.6-10.9-14.4 5.9-11 21.8-17.9 16.3-22.4-5.5-4.3-14.4 14.6-17.1 20.9z" fill="url(#paint42_linear_929_33037)"></path><path d="M119.599 340.8c6.2 11.8 13.3 21.3 23.3 27.1.1 0 .3-.1.4-.1.4-4.3 1.8-9.8 3.5-17.5-5.3-2.4-14.8-4.7-13.1-8.3 1.7-3.6 10 2.5 14.1 5.9.7-3.1 1.1-5.6 1.4-9-8.4-5.8-20.2-5.2-18.2-9.4s13.6 3 18.4 6.9c.3-4.9.6-7.6-.6-12.6-10.3-4.6-26.4.2-25.7-6.3.7-6.6 19.7.5 24.7 2.5-.7-2.5-1.7-5-3-7.5-10.9-20.7-37.1-23.3-37.2-.7 1.2 9 6.7 19 12 29zm-2.1-36.3c2.6-3.6 10.4.8 8.9 5-1.4 4.2-14.3 2.6-8.9-5z" fill="url(#paint43_linear_929_33037)"></path><path d="M28 339c-7.6 5.9-13.4 12-16.3 19.7 0 .1.1.2.1.3 3.1-.3 7.2.1 12.8.4 1-4 1.5-11 4.3-10.3 2.8.8-.5 7.4-2.4 10.7 2.3.1 4.1.1 6.6-.1 3.1-6.6 1.2-14.9 4.4-14 3.2.9-.4 10-2.6 13.9 3.5-.4 5.5-.5 8.8-2 2-7.9-3.3-18.6 1.3-18.9 4.8-.3 2 14 1.2 17.8 1.7-.8 3.3-1.8 4.9-3 13.3-10.3 11.9-29-4-26.4-6.3 1.9-12.7 7-19.1 11.9z" fill="url(#paint44_linear_929_33037)"></path><path opacity=".7" d="M93.702 407.3c-1.9 3.1-3.4 4.4-6.1 6.7-.3-3-1.5-8.5-3.3-11.3h6.7c1.2 1.4 2.1 3 2.7 4.6zm.498-4.6h2c-.3.7-.7 1.5-1.1 2.2-.1-.6-.5-1.3-.9-2.2zm-13.2 0c.4 2.4 4.3 7 5.3 12.4-1.9 1.6-3.4 2.6-5.3 3.9-.4-3.8-1.5-11.1-4.2-10.1s.9 7 2.4 10.8c-4.3 2.8-7.6 4.7-10 6.6l1.5-23.6H81z" fill="#C6DBFF"></path><path d="M47.702 373.9c.4-1.2.8-2.5 1.2-3.8 5.6-15.9 28.8-14.7 25.7 2.5-4 5.2-6.3 13.1-8.7 20.8-2.8 9.2-4 17.6-1.9 25.5-3.6-1.8-7.2-4.5-10.2-8 1.6-3 9.1-7.6 6.7-9.5-2.4-1.9-6.2 6.6-7.1 9-2.2-2.6-4-5.7-5.4-9.2 2.5-3.1 14.6-5.1 12.6-8.4-2.2-3.7-12.2 7-12.8 7.7-1.2-3.4-1.9-5.6-2-9.8 6.1-6.6 19-4.1 17.5-8.8-1.7-5.2-17.5 6-17.5 6 0-3.9.5-8.2 1.8-12.8 8.6-2.6 20.2 1.9 19.6-3.1-.8-5.1-14.9.1-19.5 1.9z" fill="url(#paint45_linear_929_33037)"></path><path d="M65.903 393.5c-2.8 9.2-4 17.6-1.9 25.5.1 0 .2.1.3.1 2.3-2 5.9-4.1 10.7-7.1-1.5-3.9-5.1-9.9-2.4-10.8 2.7-1 3.8 6.3 4.2 10.1 1.9-1.3 3.4-2.3 5.3-3.9-1.3-7.2-7.6-12.9-4.5-14 3.1-1.1 5.4 8.4 5.9 12.8 2.6-2.3 4.2-3.6 6.1-6.7-2.9-7.6-13.5-13.3-9.8-16.2 3.7-3 9.8 10.2 11.3 13.8.9-1.6 1.7-3.4 2.3-5.3 4.9-16.1-7.1-30.6-18.6-19.2-4.3 5.3-6.6 13.1-8.9 20.9z" fill="url(#paint46_linear_929_33037)"></path><path d="M52.5 151c-.7 0-1.5-.2-2.1-.7-1.5-1.2-1.7-3.3-.6-4.8.7-.9 4-4.3 9.2-7.7 6.7-4.3 14-6.9 21.1-7.3 12.2-.8 23.9 4.3 34.8 15 1.3 1.3 1.4 3.5 0 4.8-1.3 1.3-3.5 1.4-4.8 0-9.4-9.2-19.3-13.6-29.4-13.1-7.5.4-13.9 3.6-17.9 6.1-4.4 2.8-7.3 5.8-7.7 6.3-.6 1-1.6 1.4-2.6 1.4zm10.4 7.5c.8-.9 8-8.8 18.3-9.2 7-.3 14.1 3 21 9.6 1.4 1.3 3.5 1.3 4.8-.1 1.3-1.4 1.3-3.5-.1-4.8-8.3-8-17.1-11.9-26-11.5-12.9.5-21.5 9.7-23.2 11.5-1.2 1.4-1.1 3.6.3 4.8.6.6 1.4.8 2.2.9 1.1-.1 2.1-.5 2.7-1.2zm8.1 8.7c.7-1.1 4.7-5.2 10-5.7 4.5-.5 9 1.7 13.3 6.4 1.3 1.4 3.4 1.5 4.8.2s1.5-3.4.2-4.8c-7.3-7.9-14.4-9-19-8.6-7.8.8-13.6 6.4-15.1 8.9-1 1.6-.5 3.7 1.2 4.7.5.3 1.1.5 1.7.5 1.1.1 2.3-.5 2.9-1.6zm11.5 1c-3.6 0-6.6 2.9-6.6 6.5s2.9 6.6 6.5 6.6 6.6-2.9 6.6-6.5-2.8-6.6-6.5-6.6z" fill="#fff"></path></g><defs><linearGradient id="paint24_linear_929_33037" x1="357.28" y1="534.024" x2="358.124" y2="373.649" gradientUnits="userSpaceOnUse"><stop offset=".208" stop-color="#BDD4FF"></stop><stop offset="1" stop-color="#77A7FF"></stop></linearGradient><linearGradient id="paint28_linear_929_33037" x1="260.212" y1="296.897" x2="277.973" y2="252.943" gradientUnits="userSpaceOnUse"><stop stop-color="#4687FF"></stop><stop offset=".999" stop-color="#77A7FF"></stop></linearGradient><linearGradient id="paint3_linear_929_33037" x1="413.306" y1="206.587" x2="402.39" y2="185.576" gradientUnits="userSpaceOnUse"><stop stop-color="#233B67"></stop><stop offset=".325" stop-color="#39456E"></stop><stop offset=".732" stop-color="#4E4F75"></stop><stop offset=".998" stop-color="#565378"></stop></linearGradient><linearGradient id="paint4_linear_929_33037" x1="424.782" y1="169.526" x2="417.116" y2="164.319" gradientUnits="userSpaceOnUse"><stop stop-color="#4687FF"></stop><stop offset=".999" stop-color="#77A7FF"></stop></linearGradient><linearGradient id="paint5_linear_929_33037" x1="407.28" y1="207.823" x2="441.775" y2="201.066" gradientUnits="userSpaceOnUse"><stop stop-color="#233B67"></stop><stop offset=".325" stop-color="#39456E"></stop><stop offset=".732" stop-color="#4E4F75"></stop><stop offset=".998" stop-color="#565378"></stop></linearGradient><linearGradient id="paint6_linear_929_33037" x1="278.976" y1="509.306" x2="276.809" y2="290.477" gradientUnits="userSpaceOnUse"><stop offset=".208" stop-color="#BDD4FF"></stop><stop offset="1" stop-color="#77A7FF"></stop></linearGradient><linearGradient id="paint7_linear_929_33037" x1="286.773" y1="314.507" x2="287.856" y2="284.716" gradientUnits="userSpaceOnUse"><stop offset=".208" stop-color="#BDD4FF"></stop><stop offset="1" stop-color="#77A7FF"></stop></linearGradient><linearGradient id="paint8_linear_929_33037" x1="390.378" y1="307.233" x2="371.706" y2="257.552" gradientUnits="userSpaceOnUse"><stop stop-color="#F76E80"></stop><stop offset=".999" stop-color="#FFD3D7"></stop></linearGradient><linearGradient id="paint9_linear_929_33037" x1="418.012" y1="318.247" x2="404.203" y2="258.175" gradientUnits="userSpaceOnUse"><stop stop-color="#F76E80"></stop><stop offset=".25" stop-color="#FA8F9D"></stop><stop offset=".572" stop-color="#FDB4BC"></stop><stop offset=".833" stop-color="#FECBD0"></stop><stop offset=".999" stop-color="#FFD3D7"></stop></linearGradient><linearGradient id="paint10_linear_929_33037" x1="378.089" y1="458.955" x2="394.194" y2="458.955" gradientUnits="userSpaceOnUse"><stop stop-color="#F6CFBE"></stop><stop offset="1" stop-color="#FFE8E1"></stop></linearGradient><linearGradient id="paint11_linear_929_33037" x1="414.603" y1="469.247" x2="382.326" y2="485.738" gradientUnits="userSpaceOnUse"><stop stop-color="#233B67"></stop><stop offset=".998" stop-color="#565378"></stop></linearGradient><linearGradient id="paint12_linear_929_33037" x1="375.426" y1="487.038" x2="365.413" y2="474.787" gradientUnits="userSpaceOnUse"><stop stop-color="#233B67"></stop><stop offset=".998" stop-color="#565378"></stop></linearGradient><linearGradient id="paint13_linear_929_33037" x1="396.197" y1="415.095" x2="361.329" y2="415.095" gradientUnits="userSpaceOnUse"><stop stop-color="#233B67"></stop><stop offset=".998" stop-color="#565378"></stop></linearGradient><linearGradient id="paint14_linear_929_33037" x1="341.425" y1="457.755" x2="360.352" y2="457.755" gradientUnits="userSpaceOnUse"><stop stop-color="#F6CFBE"></stop><stop offset="1" stop-color="#FFE8E1"></stop></linearGradient><linearGradient id="paint15_linear_929_33037" x1="362.288" y1="496.703" x2="356.319" y2="491.677" gradientUnits="userSpaceOnUse"><stop stop-color="#233B67"></stop><stop offset=".998" stop-color="#565378"></stop></linearGradient><linearGradient id="paint16_linear_929_33037" x1="319.707" y1="467.697" x2="306.514" y2="457.802" gradientUnits="userSpaceOnUse"><stop stop-color="#233B67"></stop><stop offset=".998" stop-color="#565378"></stop></linearGradient><linearGradient id="paint17_linear_929_33037" x1="437.491" y1="396.713" x2="308.255" y2="396.713" gradientUnits="userSpaceOnUse"><stop stop-color="#233B67"></stop><stop offset=".998" stop-color="#565378"></stop></linearGradient><linearGradient id="paint21_linear_929_33037" x1="493.688" y1="486.644" x2="297.862" y2="482.846" gradientUnits="userSpaceOnUse"><stop offset=".208" stop-color="#BDD4FF"></stop><stop offset="1" stop-color="#77A7FF"></stop></linearGradient><linearGradient id="paint22_linear_929_33037" x1="453.594" y1="534.531" x2="454.438" y2="374.155" gradientUnits="userSpaceOnUse"><stop offset=".208" stop-color="#BDD4FF"></stop><stop offset="1" stop-color="#77A7FF"></stop></linearGradient><linearGradient id="paint23_linear_929_33037" x1="426.227" y1="534.387" x2="427.071" y2="374.012" gradientUnits="userSpaceOnUse"><stop offset=".208" stop-color="#BDD4FF"></stop><stop offset="1" stop-color="#77A7FF"></stop></linearGradient><linearGradient id="paint2_linear_929_33037" x1="404.196" y1="196.811" x2="373.224" y2="187.877" gradientUnits="userSpaceOnUse"><stop stop-color="#F6CFBE"></stop><stop offset="1" stop-color="#FFE8E1"></stop></linearGradient><linearGradient id="paint25_linear_929_33037" x1="397.378" y1="304.081" x2="464.06" y2="374.561" gradientUnits="userSpaceOnUse"><stop offset=".208" stop-color="#BDD4FF"></stop><stop offset="1" stop-color="#77A7FF"></stop></linearGradient><linearGradient id="paint26_linear_929_33037" x1="272.372" y1="300.99" x2="269.621" y2="258.89" gradientUnits="userSpaceOnUse"><stop stop-color="#77A7FF"></stop><stop offset="1" stop-color="#BDD4FF"></stop></linearGradient><linearGradient id="paint27_linear_929_33037" x1="291.128" y1="319.717" x2="291.128" y2="291.252" gradientUnits="userSpaceOnUse"><stop stop-color="#77A7FF"></stop><stop offset="1" stop-color="#BDD4FF"></stop></linearGradient><linearGradient id="paint1_linear_929_33037" x1="410.35" y1="207.009" x2="388.908" y2="203.138" gradientUnits="userSpaceOnUse"><stop stop-color="#F6CFBE"></stop><stop offset="1" stop-color="#FFE8E1"></stop></linearGradient><linearGradient id="paint29_linear_929_33037" x1="235.333" y1="302.967" x2="235.597" y2="282.885" gradientUnits="userSpaceOnUse"><stop stop-color="#77A7FF"></stop><stop offset="1" stop-color="#BDD4FF"></stop></linearGradient><linearGradient id="paint30_linear_929_33037" x1="235.667" y1="278.601" x2="235.667" y2="275.273" gradientUnits="userSpaceOnUse"><stop stop-color="#BDD4FF"></stop><stop offset="1" stop-color="#E7EFFF"></stop></linearGradient><linearGradient id="paint31_linear_929_33037" x1="233.577" y1="294.012" x2="237.478" y2="286.159" gradientUnits="userSpaceOnUse"><stop stop-color="#BDD4FF"></stop><stop offset="1" stop-color="#E7EFFF"></stop></linearGradient><linearGradient id="paint32_linear_929_33037" x1="235.667" y1="278.917" x2="235.667" y2="277.703" gradientUnits="userSpaceOnUse"><stop stop-color="#77A7FF"></stop><stop offset="1" stop-color="#BDD4FF"></stop></linearGradient><linearGradient id="paint33_linear_929_33037" x1="306.132" y1="299.048" x2="307.305" y2="284.609" gradientUnits="userSpaceOnUse"><stop stop-color="#F6CFBE"></stop><stop offset="1" stop-color="#FFE8E1"></stop></linearGradient><linearGradient id="paint34_linear_929_33037" x1="297.552" y1="293.566" x2="318.329" y2="296.755" gradientUnits="userSpaceOnUse"><stop stop-color="#F6CFBE"></stop><stop offset="1" stop-color="#FFE8E1"></stop></linearGradient><linearGradient id="paint35_linear_929_33037" x1="356.175" y1="320.965" x2="361.361" y2="271.328" gradientUnits="userSpaceOnUse"><stop stop-color="#F76E80"></stop><stop offset=".999" stop-color="#FFD3D7"></stop></linearGradient><linearGradient id="paint38_linear_929_33037" x1="-nan" y1="-nan" x2="-nan" y2="-nan" gradientUnits="userSpaceOnUse"><stop stop-color="#BDD4FF"></stop><stop offset="1" stop-color="#EDF3FF"></stop></linearGradient><linearGradient id="paint39_linear_929_33037" x1="128.009" y1="313.264" x2="97.527" y2="367.267" gradientUnits="userSpaceOnUse"><stop stop-color="#27AE56"></stop><stop offset=".999" stop-color="#D9E9DE"></stop></linearGradient><linearGradient id="paint40_linear_929_33037" x1="41.639" y1="279.755" x2="62.999" y2="338.317" gradientUnits="userSpaceOnUse"><stop stop-color="#27AE56"></stop><stop offset=".999" stop-color="#D9E9DE"></stop></linearGradient><linearGradient id="paint41_linear_929_33037" x1="94.042" y1="462.648" x2="82.533" y2="389.089" gradientUnits="userSpaceOnUse"><stop stop-color="#BDD4FF"></stop><stop offset="1" stop-color="#E7EFFF"></stop></linearGradient><linearGradient id="paint42_linear_929_33037" x1="159.776" y1="292.481" x2="112.254" y2="339.283" gradientUnits="userSpaceOnUse"><stop stop-color="#27AE56"></stop><stop offset=".999" stop-color="#D9E9DE"></stop></linearGradient><linearGradient id="paint43_linear_929_33037" x1="131.371" y1="170.988" x2="128.44" y2="336.931" gradientUnits="userSpaceOnUse"><stop stop-color="#27AE56"></stop><stop offset=".999" stop-color="#D9E9DE"></stop></linearGradient><linearGradient id="paint44_linear_929_33037" x1="56.012" y1="406.261" x2="36.571" y2="348.659" gradientUnits="userSpaceOnUse"><stop stop-color="#27AE56"></stop><stop offset=".999" stop-color="#D9E9DE"></stop></linearGradient><linearGradient id="paint45_linear_929_33037" x1="123.174" y1="390.344" x2="60.291" y2="388.904" gradientUnits="userSpaceOnUse"><stop stop-color="#27AE56"></stop><stop offset=".999" stop-color="#D9E9DE"></stop></linearGradient><linearGradient id="paint46_linear_929_33037" x1="109.78" y1="337.905" x2="82.178" y2="385.667" gradientUnits="userSpaceOnUse"><stop stop-color="#27AE56"></stop><stop offset=".999" stop-color="#D9E9DE"></stop></linearGradient><radialGradient id="paint19_radial_929_33037" cx="0" cy="0" r="1" gradientUnits="userSpaceOnUse" gradientTransform="matrix(-127.149 0 0 -8.27653 277.946 526.6)"><stop offset=".002" stop-color="#4873C4" stop-opacity=".4"></stop><stop offset=".203" stop-color="#4B75C5" stop-opacity=".314"></stop><stop offset=".344" stop-color="#547CC8" stop-opacity=".253"></stop><stop offset=".466" stop-color="#6388CD" stop-opacity=".201"></stop><stop offset=".578" stop-color="#7999D4" stop-opacity=".153"></stop><stop offset=".683" stop-color="#96AEDD" stop-opacity=".108"></stop><stop offset=".782" stop-color="#B9C9E8" stop-opacity=".066"></stop><stop offset=".875" stop-color="#E1E8F5" stop-opacity=".026"></stop><stop offset=".935" stop-color="#fff" stop-opacity="0"></stop></radialGradient><radialGradient id="paint36_radial_929_33037" cx="0" cy="0" r="1" gradientUnits="userSpaceOnUse" gradientTransform="rotate(180 40.276 65.695) scale(127.265)"><stop offset=".094" stop-color="#77A7FF"></stop><stop offset="1" stop-color="#4687FF"></stop></radialGradient><radialGradient id="paint37_radial_929_33037" cx="0" cy="0" r="1" gradientUnits="userSpaceOnUse" gradientTransform="rotate(180 226.659 59.724) scale(46.1788)"><stop offset=".224" stop-color="#EDF3FF"></stop><stop offset="1" stop-color="#BDD4FF"></stop></radialGradient><radialGradient id="paint20_radial_929_33037" cx="0" cy="0" r="1" gradientUnits="userSpaceOnUse" gradientTransform="matrix(-.17201 32.85185 -70.39154 -.36857 278.307 506.34)"><stop offset=".208" stop-color="#BDD4FF"></stop><stop offset="1" stop-color="#77A7FF"></stop></radialGradient><radialGradient id="paint0_radial_929_33037" cx="0" cy="0" r="1" gradientUnits="userSpaceOnUse" gradientTransform="rotate(179.653 147.317 212.876) scale(319.47 190.978)"><stop stop-color="#BDD4FF" stop-opacity=".7"></stop><stop offset=".862" stop-color="#EDF3FF" stop-opacity="0"></stop></radialGradient><radialGradient id="paint18_radial_929_33037" cx="0" cy="0" r="1" gradientUnits="userSpaceOnUse" gradientTransform="matrix(-127.149 0 0 -8.27653 409.058 529.6)"><stop offset=".002" stop-color="#4873C4" stop-opacity=".4"></stop><stop offset=".203" stop-color="#4B75C5" stop-opacity=".314"></stop><stop offset=".344" stop-color="#547CC8" stop-opacity=".253"></stop><stop offset=".466" stop-color="#6388CD" stop-opacity=".201"></stop><stop offset=".578" stop-color="#7999D4" stop-opacity=".153"></stop><stop offset=".683" stop-color="#96AEDD" stop-opacity=".108"></stop><stop offset=".782" stop-color="#B9C9E8" stop-opacity=".066"></stop><stop offset=".875" stop-color="#E1E8F5" stop-opacity=".026"></stop><stop offset=".935" stop-color="#fff" stop-opacity="0"></stop></radialGradient><clipPath id="clip0_929_33037"><path fill="#fff" d="M0 0h555v555H0z"></path></clipPath></defs></svg>